<?xml version="1.0" encoding="UTF-8"?>
<svg id="Layer_1" data-name="Layer 1" xmlns="http://www.w3.org/2000/svg" version="1.1" viewBox="0 0 324 324">
  <defs>
    <style>
      .cls-1 {
        fill: #0072bc;
      }

      .cls-1, .cls-2, .cls-3, .cls-4 {
        stroke-width: 0px;
      }

      .cls-1, .cls-4 {
        fill-rule: evenodd;
      }

      .cls-2 {
        fill: #fff;
      }

      .cls-3 {
        fill: #231f20;
      }

      .cls-4 {
        fill: #2e3192;
      }
    </style>
  </defs>
  <path class="cls-2" d="M162,324C72.7,324,0,251.4,0,162S72.7,0,162,0s162,72.7,162,162-72.7,162-162,162Z"/>
  <g>
    <g>
      <path class="cls-1" d="M161.8,54.1c57.6,0,105,45.1,108.9,101.9l-2.1.8c-43.5,27.8-65.7,3.7-65.7,3.7l-31.8-22.9c-33.8-26.2-59.6-8.6-59.6-8.6l-21.4,10.2s-24.2,14.1-37.4,21.3c1.6-58.9,50-106.3,109.1-106.3h0ZM228.7,129.4c6.7,0,12.1,5.5,12.1,12.3s-5.4,12.3-12.1,12.3-12.1-5.5-12.1-12.3,5.4-12.3,12.1-12.3h0Z"/>
      <path class="cls-4" d="M161.5,272.5c-57.6,0-105-45.1-108.9-101.9l2.1-.8c43.5-27.8,65.7-3.7,65.7-3.7l31.8,22.9c33.8,26.2,59.6,8.6,59.6,8.6l21.4-10.2s24.2-14.1,37.4-21.3c-1.6,58.9-50,106.3-109.1,106.3h0Z"/>
    </g>
    <g>
      <path class="cls-3" d="M36.8,107.2c-.4-.2-.9-.3-1.4-.3-1.5,0-2.8.9-3.4,2.3-.4.9-.4,1.9,0,2.8s1.1,1.6,2,2c.4.2.9.3,1.4.3,1.5,0,2.8-.9,3.4-2.3.4-.9.4-1.9,0-2.8s-1.1-1.6-1.9-2h-.1Z"/>
      <path class="cls-3" d="M37.9,87.7c-.3-.2-.6-.2-.9-.2-.6,0-1.2.3-1.5.8-.5.8-.2,1.9.6,2.4.3.2.6.3.9.3h0c.6,0,1.2-.3,1.5-.8.2-.4.3-.9.2-1.3,0-.5-.4-.8-.8-1.1h0Z"/>
      <path class="cls-3" d="M40.3,83.9c-.3-.2-.6-.2-.9-.2-.6,0-1.2.3-1.5.8-.5.8-.2,1.9.6,2.4.3.2.6.3.9.3.6,0,1.2-.3,1.5-.8.5-.8.2-1.9-.6-2.4h0Z"/>
      <path class="cls-3" d="M63.4,86.4c-.3-.2-.7-.3-1.1-.3s-1,.3-1.4.7c-.6.8-.4,1.9.4,2.4.3.2.6.3,1,.3.6,0,1.1-.3,1.4-.7.3-.4.4-.8.3-1.3,0-.5-.3-.9-.7-1.1h0Z"/>
      <path class="cls-3" d="M60.7,90c-.3-.2-.7-.3-1.1-.3s-1,.3-1.4.7c-.6.8-.4,1.9.4,2.4.3.2.6.3,1,.3.6,0,1.1-.3,1.4-.7.6-.8.4-1.8-.4-2.4h0Z"/>
      <path class="cls-3" d="M44,84.8l-2.7,4.4c-.7,1.1-.9,2.4-.6,3.5.3,1.1,1,2.1,2.2,2.8l2.3,1.4c.8.5,1.7.8,2.6.8,1.5,0,2.9-.8,3.8-2.3l-1-2.6h0l1.8,1.1,2.4-3.9h0l2-2.8c.8-1,1.1-2.3.9-3.4-.2-1.2-.9-2.2-1.9-3l-6-4.4-2,2.8,5.9,4.4c.9.6.5,1.4.3,1.7l-2,2.7h0l-.8,1.2h0l-7.3-4.5h0ZM49.6,92.2l-.9,1.5c-.3.5-.7.6-.9.6s-.4,0-.7-.2l-2.3-1.4c-.3-.2-.6-.5-.6-.8s0-.6,0-.8l.9-1.6h0l4.4,2.7h0Z"/>
      <path class="cls-3" d="M83.5,64c-.4,0-.8,0-1.1.4-.4.3-.6.7-.6,1.2s0,.9.4,1.3.8.6,1.3.6.8,0,1.1-.4c.7-.6.8-1.7.2-2.4-.3-.4-.8-.6-1.4-.6h0Z"/>
      <path class="cls-3" d="M77.8,43l-2.7,2,7.2,9.9c.2.3.3.6.3.9s-.2.6-.5.8l-1.3.9h0l-1.1.9h0l-5.5-6.6-2.6,2.2,5.5,6.6h0l-3.5,3h0l-1,1h0l-2.8-2.8c-.9-.9-2.1-1.4-3.3-1.4s-2.3.5-3.2,1.4l-3.7,3.7,2.4,2.4,3.7-3.7c.2-.2.5-.4.8-.4s.6,0,.9.4l2.8,2.8h0l-6.4,6.5h0l-.9,1.1h0l-6.5-5.5-2.2,2.6,8.9,7.5c1.1.9,2.1,2.1.7,4.7l3.9.2c.9-3.3.5-5.1-1.6-6.9l-.6-.5h0l.9-1.1h0l9.4-9.4h0l7.1-5.9h0l1.2-.9c1.1-.8,1.8-1.9,2-3.2,0-1.1-.2-2.3-.9-3.3l-7.3-10h0Z"/>
      <polygon class="cls-3" points="93.4 53 84.2 38.7 81.4 40.6 91.6 56.3 93.4 53"/>
      <path class="cls-3" d="M104.5,27.7c-.2,0-.5,0-.7.1-.9.4-1.3,1.4-.9,2.3.3.6.9,1,1.6,1s.5,0,.7-.2c.8-.4,1.2-1.4.8-2.3-.3-.6-.9-1-1.6-1h0Z"/>
      <path class="cls-3" d="M100.2,29.7c-.2,0-.5,0-.7.1-.9.4-1.3,1.4-.9,2.3.3.6.9,1,1.6,1s.5,0,.7-.2c.8-.4,1.2-1.4.8-2.3-.3-.6-.9-1-1.6-1h0Z"/>
      <path class="cls-3" d="M102,47.3c.7,0,1.5-.2,2.2-.5l9.9-4.5c1.2-.6,2.1-1.4,2.5-2.5s.3-2.3-.2-3.5l-3.1-6.8-3.1,1.4,3,6.6c.2.4.2.8,0,1.1,0,.3-.3.5-.6.6l-10,4.5c-.2,0-.4,0-.6,0-.4,0-.8-.3-1.1-.9l-2.1-4.6-2.2,3.4,1.2,2.7c.8,1.8,2.2,2.8,4,2.8h0Z"/>
      <path class="cls-3" d="M132.6,39.5c.5,0,.9,0,1.4-.2,2.2-.5,4.5-2.3,3.7-5.8l-1.3-5.7c-.5-2.3-2.2-3.6-4.4-3.6s-.9,0-1.4.2c-1.3.3-2.4,1-3.1,1.8-.8,1-1,2.3-.6,3.8l.9,4-2.7.6h0c0,0-.3.2-.3.2h-.5c-.5,0-.9-.3-1-.9l-3.8-11.7-3.2,1,3.8,11.9c.6,1.9,2.3,3.2,4.1,3.2s.9,0,1.3-.2l.6-.2h0c0,0,2.6-.7,2.6-.7h0c.8,1.3,2.2,2.1,3.8,2.1v.2ZM131.3,27.8h.5c.6,0,1.1.3,1.2,1l1.4,5.8c0,.4,0,.7-.1.9-.2.3-.6.5-1,.7h-.5c-.6,0-1.1-.3-1.2-1l-1.4-5.8c-.2-.8.2-1.4,1.2-1.6h0Z"/>
      <path class="cls-3" d="M159,15.7h0c-.9,0-1.7.9-1.7,1.8s.8,1.7,1.7,1.7h0c1,0,1.7-.8,1.7-1.8s-.8-1.7-1.8-1.7h.1Z"/>
      <path class="cls-3" d="M173.9,33.5l1.4.2h.7c2.8,0,4.2-2,4.5-4.1l1.4-12.3-3.4-.4-1.4,12.2c0,.7-.5,1.1-1.2,1.1s-.1,0-.2,0l-1.6-.2h-1.4l.8-13.5-3.4-.2-.8,13.5h0l-2.7-.2h0c0-.1-1.5-.1-1.5-.1h0v-4c0-2.7-1.9-4.5-4.5-4.5s0,0-.1,0h-5.2v3.5h5.2c.7-.1,1.1.4,1.2,1.1v4h0l-9.1.2-1.4.2h0l-.2-2c-.4-2.8-2.1-5.8-6-5.8s-.7,0-1,0l-2.1.3.4,3.4,1.8-.2h.6c1.6,0,2.6.9,2.8,2.6l.3,2.2h0l-6.9.9.4,3.4,11.6-1.5,13.6-.3h0c0,0,7.5.6,7.5.6h-.1Z"/>
      <path class="cls-3" d="M198.3,20.1h-.4c-.8,0-1.5.6-1.7,1.3-.2.9.4,1.9,1.3,2.1h.4c.8,0,1.5-.6,1.7-1.4.1-.4,0-.9-.2-1.3s-.6-.7-1.1-.8h0Z"/>
      <path class="cls-3" d="M193.7,19.2h-.4c-.8,0-1.5.6-1.7,1.3-.1.5,0,.9.2,1.3s.6.7,1.1.8h.4c.8,0,1.5-.6,1.7-1.4.2-.9-.4-1.9-1.3-2.1h0Z"/>
      <path class="cls-3" d="M198.9,41.5h-.5c-.8,0-1.5.5-1.7,1.2-.1.4,0,.9.1,1.3.2.4.6.7,1,.9h.5c.7,0,1.4-.5,1.6-1.2.3-.9-.2-1.9-1.1-2.2h0Z"/>
      <path class="cls-3" d="M203.3,42.7h-.5c-.8,0-1.5.5-1.7,1.2-.3.9.2,1.9,1.1,2.2h.5c.7,0,1.4-.5,1.6-1.2.1-.4.1-.9,0-1.3-.2-.4-.6-.7-1-.9h0Z"/>
      <path class="cls-3" d="M219.6,46.2h0c0,0,1.4.8,1.4.8.8.4,1.5.6,2.3.6,1.6,0,3.1-.9,3.9-2.5l5.8-10.9-3-1.6-5.7,10.8c-.2.4-.6.7-1,.7s-.4,0-.6-.2l-1.4-.7h0c0,0-1.3-.7-1.3-.7l1.6-3.8c.5-1.3.6-2.5,0-3.7-.5-1.1-1.4-2-2.7-2.5-.8-.3-1.6-.5-2.3-.5-1.8,0-3.2,1-4,2.9l-1.6,3.8-2.5-1.1h0l-1.3-.4h0l2.7-8.2-3.3-1.1-2.7,8.2h0l-4.4-1.4h0l-1.4-.4h0l2-8.4-5-1.2c-.4,0-.8-.1-1.2-.1-2.1,0-3.8,1.4-4.3,3.6l-.6,2.7c-.3,1.3-.1,2.5.5,3.5s1.7,1.8,3,2.1l2.2-1.8h0l-.5,2.2,4.5,1h0l9,3h0l2.5,1.1h0c-.2,2,1,3.7,3.1,4.6.8.3,1.5.5,2.3.5,1.3,0,2.4-.5,3.2-1.5h0l1.3.5h-.5ZM195.7,28.6l-1.2,5-1.8-.4c-.7-.2-1-.7-.8-1.4l.6-2.7c.1-.6.6-1,1.1-1s.2,0,.3,0l1.8.4h0ZM216,42.9c-.2.5-.6.8-1.1.8s-.5,0-.8-.2c-.5-.2-.8-.5-.9-.8-.1-.3,0-.6,0-.9l2.3-5.5c.2-.5.6-.8,1.1-.8s.5,0,.8.2c.9.4,1.2,1,.9,1.8l-2.3,5.5h0Z"/>
      <path class="cls-3" d="M249.2,65c1.3,0,2.5-.6,3.4-1.6l8.2-9.3-2.5-2.2-8.1,9.2c-.3.3-.6.5-.9.5s-.6,0-.8-.3l-1.2-1h0v-.2c.1,0-3.6-2.7-3.6-2.7h0c1.2-.4,2.7-.6,3.8-.6s.2,0,.3,0c.9-1.2,1.3-2.5,1.1-4-.2-1.7-1.2-3.3-2.7-4.4-1.2-.8-2.6-1.3-4-1.3s-3.5.9-4.4,2.4c.3.9.6,2.7.7,4.1h0l-4.7-3.4v.2c-.1,0-.4,0-.4,0-.7-.4-.8-1-.4-1.6l6.4-10.5-2.9-1.8-6.4,10.7c-.6,1-.8,2.2-.6,3.3.2,1.2.9,2.1,2,2.8l.5.3v-.2h.1l5.4,3.9c.5.4,1,.6,2,.7h0c.3.9.5,1.2,1.2,1.7l4.3,3.1h-.1c0,0,1.2,1.2,1.2,1.2.9.8,2,1.2,3.1,1.2h0ZM242.3,54h0c0-.9-.2-2-.6-3.1h0c1.1-.4,2-.3,2.7.3.7.5,1.1,1.4,1.1,2.5h0c-1,0-2,0-3.1.4h0Z"/>
      <polygon class="cls-3" points="266.4 59.4 264 57 250.8 70.4 254.5 71.5 266.4 59.4"/>
      <path class="cls-3" d="M287.7,87.4c-.3,0-.6,0-.9.2-.4.2-.7.6-.8,1.1-.1.5,0,.9.2,1.3.3.5.9.8,1.5.8s.6,0,.9-.3c.8-.5,1.1-1.5.6-2.4-.3-.5-.9-.9-1.5-.9v.2Z"/>
      <path class="cls-3" d="M276.6,97c.8,0,1.7-.3,2.5-.7l6.4-3.8-1.8-2.9-6.3,3.8c-.3.2-.5.2-.7.2-.5,0-.8-.4-1-.6l-1.7-2.9h0l-.9-1.2h0l3.3-2.4c2.3-1.6,2.6-4.3.9-6.7-1-1.4-2.4-2.2-3.8-2.2s-1.9.3-2.8,1l-3.3,2.4h0l-1.6-2.2h-.1l-.2-.2c-.5-.6-.4-1.2.1-1.7l9.3-8-2.2-2.6-9.5,8.1c-.9.8-1.5,1.8-1.6,2.9-.2,1.2.2,2.3,1,3.2l.4.4h0l1.6,2.2h0c-1.2,1.6-1.1,3.7.3,5.6,1,1.4,2.4,2.2,3.8,2.2s.9,0,1.4-.2h0l.8,1.1h0l1.8,3c.9,1.5,2.3,2.3,3.8,2.3h.1ZM269.7,87.1c-.2.2-.5.3-.7.3-.4,0-.8-.3-1.2-.7-.6-.8-.5-1.5.1-2l4.8-3.5c.7-.5,1.4-.3,1.9.5.3.4.4.7.4,1s-.2.7-.5.9l-4.8,3.5h0Z"/>
      <path class="cls-3" d="M288.2,103.9c-.5,0-1,0-1.5.3-1.8.8-2.6,2.9-1.8,4.8.6,1.3,1.9,2.2,3.4,2.2s1,0,1.4-.3c1.8-.8,2.7-3,1.9-4.8-.6-1.3-1.9-2.2-3.3-2.2h-.1Z"/>
    </g>
    <g>
      <polygon class="cls-3" points="22.1 119.8 21.2 123.3 31.6 125.9 31.5 125.9 19.5 130.1 18.7 133.4 35.6 137.7 36.5 134.1 26 131.5 26.1 131.5 38.2 127.3 39 124 22.1 119.8"/>
      <path class="cls-3" d="M17.9,137.5l-.5,4,3.1,1.3h0l-.6,5.2h0l-3.3.6-.5,4,17.9-3.7.5-3.9-16.6-7.6h0ZM23.1,147.6h0l.4-3.6,6,2.5-6.5,1.1h.1Z"/>
      <polygon class="cls-3" points="20.4 165.9 20.5 165.9 33.4 162.3 33.3 156.5 15.9 157 16 160.5 28.7 160.2 28.7 160.2 16.1 164 16.2 168.1 29 171.2 29 171.2 16.3 171.6 16.4 175.1 33.8 174.7 33.6 169.2 20.4 165.9"/>
      <polygon class="cls-3" points="22.9 189 23 189 35.2 183.4 34.1 177.6 17 180.9 17.7 184.4 30.2 182 30.2 182.1 18.3 187.8 19.1 191.9 32.3 192.8 32.3 192.9 19.8 195.3 20.5 198.8 37.5 195.5 36.5 190.1 22.9 189"/>
      <path class="cls-3" d="M21.7,202.9l1.3,3.8,3.4-.2h0l1.7,5h0l-2.7,2,1.3,3.8,14.6-11.1-1.3-3.7-18.3.4ZM36,206l-5.2,3.7h0l-1.2-3.4h0l6.5-.4h0Z"/>
      <rect class="cls-3" x="30.4" y="221.3" width="17.4" height="3.8" transform="translate(-95.5 40.9) rotate(-26.5)"/>
      <polygon class="cls-3" points="45.6 238.5 45.7 238.4 51 226.9 49.2 224 34.4 233.2 36.3 236.3 45.4 230.6 45.4 230.7 40 242.2 41.9 245.2 56.6 235.9 54.7 232.9 45.6 238.5"/>
      <polygon class="cls-3" points="55.6 239.9 58.2 243.1 58.2 243.1 47.2 252.1 49.6 255 60.6 246.1 60.7 246.1 63.1 249.2 66 247.6 58.1 237.8 55.6 239.9"/>
      <polygon class="cls-3" points="55.3 261.7 62.8 269 65.5 267.1 60.2 262.1 60.3 262 63.1 259.1 63.1 259.1 67.1 263 69.7 261.1 65.3 256.8 65.3 256.8 67.9 254.1 67.9 254.2 72.7 258.8 75.3 256.9 67.4 249.2 55.3 261.7"/>
      <path class="cls-3" d="M73.1,277.7l3.3,2.6,1.2-7.1h0c.4,0,.8.1,1.1.1,1.6,0,3.1-.8,4.4-2.4,1.4-1.7,3-5.1-1.5-8.7l-4.5-3.6-10.9,13.6,3,2.4,3.6-4.5h0l1.7,1.3h0l-1.4,6.2h0ZM74.8,267.7l3.4-4.2h0l1.7,1.4c.5.4.8.9.9,1.5,0,.7-.2,1.4-.7,2.1-.6.7-1.3,1.2-2.1,1.2s-1-.2-1.5-.6l-1.7-1.4h0Z"/>
      <polygon class="cls-3" points="92.5 282.5 92.1 269.8 89.1 268 80 282.9 83.1 284.7 88.7 275.6 88.7 275.7 89.1 288.4 92.1 290.2 101.1 275.3 98 273.4 92.5 282.6 92.5 282.5"/>
      <path class="cls-3" d="M106,296.7l3.7,1.6,1.8-18.2-3.6-1.6-12.2,13.6,3.7,1.6,2.2-2.6h0l4.8,2.1h0l-.4,3.4h0ZM103.6,288.7h0l4.2-5h0c0,.1-.9,6.5-.9,6.5h0s-3.3-1.5-3.3-1.5Z"/>
      <polygon class="cls-3" points="122.8 287.6 122.8 287.6 126.5 288.8 128 286 116.1 282.1 115.1 285.1 119.1 286.4 119.1 286.4 114.7 299.9 118.4 301.1 122.8 287.6"/>
      <rect class="cls-3" x="121.5" y="293.5" width="17.4" height="3.8" transform="translate(-187.2 354.2) rotate(-76.7)"/>
      <path class="cls-3" d="M144.9,288.9h-1.4c-4.4,0-7.2,2.8-7.8,7.9-.7,5.7,1.8,9.3,6.9,10h1.4c4.4,0,7.2-2.8,7.8-7.9.7-5.7-1.8-9.3-6.9-10ZM148,298.3c-.2,1.9-.7,3.2-1.4,4s-1.6,1.2-2.8,1.2-.5,0-.8,0c-1.4-.2-2.4-.8-2.9-1.7-.6-1-.8-2.5-.5-4.6.5-3.6,1.8-5.2,4.2-5.2s.5,0,.8,0c2.9.4,4,2.3,3.4,6.3h0Z"/>
      <polygon class="cls-3" points="166.1 290.2 166.2 301 166.2 300.9 159.1 290.3 155.7 290.3 155.8 307.7 159.4 307.7 159.4 297 159.4 297 166.4 307.6 169.9 307.6 169.8 290.2 166.1 290.2"/>
      <path class="cls-3" d="M177.2,289.4l-3.3,18,4-.5.5-3.4h0l5.2-.7h0l1.4,3.1,4-.5-8-16.5-3.9.5h.1ZM182.4,299.8l-3.5.5h0l.9-6.5,2.6,6h0Z"/>
      <polygon class="cls-3" points="195.8 300.4 195.8 300.3 192.3 286.6 188.6 287.5 192.9 304.4 202.3 302 202.1 298.8 195.8 300.4"/>
      <polygon class="cls-3" points="216.6 278 218.6 291.5 218.5 291.4 210.3 280.8 205 283.1 212 299.1 215.2 297.7 210.1 286 210.2 286 218.4 296.3 222.1 294.6 220.2 281.6 220.2 281.6 225.3 293.2 228.6 291.8 221.6 275.8 216.6 278"/>
      <path class="cls-3" d="M228,271.9l4.4,17.8,3.4-2.1-.9-3.3h0l4.5-2.8h0l2.5,2.2,3.4-2.1-14.1-11.7-3.3,2.1h.1ZM232.3,275l4.8,4.3-3.1,1.9h0l-1.8-6.3h.1Z"/>
      <path class="cls-3" d="M251.9,268.2h0c.9-1.9.5-4-1-5.9-1.2-1.5-2.7-2.3-4.3-2.3s-3,.6-4.5,1.9l-4.5,3.7,11,13.5,3-2.4-3.6-4.4h0l1.6-1.3,5.8,2.7,3.3-2.7-6.7-2.7h0ZM247.7,268.5l-1.7,1.4h0l-3.4-4.2h0l1.7-1.4c.5-.4,1-.6,1.5-.6.8,0,1.5.4,2.1,1.2.5.6.8,1.3.7,1.9,0,.6-.3,1.2-.9,1.7h0Z"/>
      <rect class="cls-3" x="254.8" y="252.4" width="3.8" height="17.4" transform="translate(-109.3 251) rotate(-43.9)"/>
      <polygon class="cls-3" points="269.5 249.9 269.4 249.9 256.8 248.2 254.5 250.8 267.7 262.2 270.1 259.4 262 252.4 262.1 252.4 274.7 254.1 276.9 251.5 263.7 240.1 261.4 242.9 269.5 249.9"/>
      <polygon class="cls-3" points="280 247.3 285.8 238.5 283.5 236.3 279.5 242.3 279.4 242.3 276.1 240 276.1 240 279.2 235.4 276.8 233.2 273.4 238.3 273.4 238.2 270.3 236.2 270.3 236.1 274 230.6 271.7 228.4 265.5 237.6 280 247.3"/>
      <path class="cls-3" d="M293,225.9c.9-1.8,1.1-3.4.7-4.8-.4-1.4-1.4-2.5-3.1-3.3-.7-.3-1.4-.5-2-.5-2.1,0-3.8,1.5-5.2,2.7-1,.8-1.8,1.6-2.5,1.6s-.3,0-.4,0c-.4-.2-.6-.5-.7-.9-.1-.5,0-1.2.4-2,.7-1.4,1.7-2.3,2.6-3.1l-2.7-2c-1,.8-2.2,2.3-2.8,3.6-.8,1.7-1.2,3.3-.9,4.6.2,1.4,1.1,2.5,2.6,3.2.7.3,1.4.5,2.1.5,1.9,0,3.4-1.3,4.7-2.5,1.1-1,2-1.8,2.9-1.8s.5,0,.7.2c.5.2.8.6.9,1s.2,1.1-.3,2.2c-.9,1.9-2.4,3.3-2.9,3.7l2.8,2c1.1-1,2.2-2.5,3.1-4.3h0Z"/>
      <polygon class="cls-3" points="287.2 201.7 284.4 200.1 280.6 210.5 297 216.4 300.6 206.5 297.8 204.9 295.3 211.7 295.3 211.7 291.4 210.3 291.5 210.3 293.3 205 290.5 203.5 288.4 209.2 284.9 208 284.9 207.9 287.2 201.7"/>
      <path class="cls-3" d="M298.1,191h0c-.5-2.1-2-3.5-4.4-4.1-.6-.1-1.2-.2-1.7-.2-2,0-4.5.9-5.5,5.3l-1.3,5.6,16.9,4,.9-3.7-5.6-1.3h0l.5-2.1h0l6.2-1.4,1-4.1-7,1.9h0ZM294.8,193.8l-.5,2.2h0l-5.3-1.3h0l.5-2.2c.3-1.1,1.2-1.8,2.4-1.8s.6,0,.9.1c1.6.4,2.4,1.5,2.1,3h-.1Z"/>
      <polygon class="cls-3" points="290 169.3 289.6 173.2 302.1 178.3 301.9 178.3 288.7 180.4 288.3 184.3 306.2 180.8 306.7 176.8 290 169.3"/>
      <rect class="cls-3" x="296.4" y="156.6" width="3.8" height="17.4" transform="translate(125.8 459.5) rotate(-88.6)"/>
      <path class="cls-3" d="M289.3,151.8c.3,5,3.7,8.1,8.9,8.1h.8c5.4-.3,8.5-3.9,8.1-9.5,0-1.1-.4-3.3-.8-4.3l-3.6-.4c.4,1.1,1,3.3,1.1,4.5,0,.9,0,2.3-.7,3.5-.8,1.4-2.2,2.1-4.2,2.2h-.8c-3.5,0-5.4-1.6-5.6-4.6-.1-1.8.4-3.5.7-4.4l-3.4-.4c-.5,1.7-.7,3.5-.6,5.3h.1Z"/>
      <polygon class="cls-3" points="300.9 131 302.2 138.1 302.2 138.2 298.2 138.9 298.2 138.8 297.2 133.3 294 133.4 295 139.4 295 139.4 291.4 140.1 291.4 140.1 290.2 133.5 287 133.5 288.9 144.4 306 141.4 304.2 131 300.9 131"/>
      <path class="cls-3" d="M302.1,121.9c-.9-3.1-2.7-4.8-5.2-4.8s-1.3,0-1.9.3c-3.2.9-3.6,4-3.9,6.5-.2,1.6-.3,2.8-1.2,3h-.4c-.8,0-1.4-.7-1.7-2-.4-1.5-.3-2.9-.1-4.1l-3.3.3c-.2,1.1-.2,2.9.3,4.6.9,3.2,2.6,4.9,4.9,4.9s1,0,1.5-.2c3.2-.9,3.5-3.7,3.8-6.1.2-1.7.4-3.3,1.6-3.6,1.2-.3,2.1.4,2.6,2,.6,2,.4,4,.3,4.7l3.4-.4c.2-1.5,0-3.4-.6-5.3v.2Z"/>
    </g>
    <path class="cls-3" d="M162,324C72.7,324,0,251.4,0,162S72.7,0,162,0s162,72.7,162,162-72.7,162-162,162ZM162,1.5C73.5,1.5,1.5,73.5,1.5,162s72,160.5,160.5,160.5,160.5-72,160.5-160.5S250.5,1.5,162,1.5Z"/>
  </g>
  <g>
    <path class="cls-1" d="M161.8,54.1c57.6,0,105,45.1,108.9,101.9l-2.1.8c-43.5,27.8-65.7,3.7-65.7,3.7l-31.8-22.9c-33.8-26.2-59.6-8.6-59.6-8.6l-21.4,10.2s-24.2,14.1-37.4,21.3c1.6-58.9,50-106.3,109.1-106.3h0ZM228.7,129.4c6.7,0,12.1,5.5,12.1,12.3s-5.4,12.3-12.1,12.3-12.1-5.5-12.1-12.3,5.4-12.3,12.1-12.3h0Z"/>
    <path class="cls-4" d="M161.5,272.5c-57.6,0-105-45.1-108.9-101.9l2.1-.8c43.5-27.8,65.7-3.7,65.7-3.7l31.8,22.9c33.8,26.2,59.6,8.6,59.6,8.6l21.4-10.2s24.2-14.1,37.4-21.3c-1.6,58.9-50,106.3-109.1,106.3h0Z"/>
  </g>
  <g>
    <path class="cls-3" d="M36.8,107.2c-.4-.2-.9-.3-1.4-.3-1.5,0-2.8.9-3.4,2.3-.4.9-.4,1.9,0,2.8s1.1,1.6,2,2c.4.2.9.3,1.4.3,1.5,0,2.8-.9,3.4-2.3.4-.9.4-1.9,0-2.8s-1.1-1.6-1.9-2h-.1Z"/>
    <path class="cls-3" d="M37.9,87.7c-.3-.2-.6-.2-.9-.2-.6,0-1.2.3-1.5.8-.5.8-.2,1.9.6,2.4.3.2.6.3.9.3h0c.6,0,1.2-.3,1.5-.8.2-.4.3-.9.2-1.3,0-.5-.4-.8-.8-1.1h0Z"/>
    <path class="cls-3" d="M40.3,83.9c-.3-.2-.6-.2-.9-.2-.6,0-1.2.3-1.5.8-.5.8-.2,1.9.6,2.4.3.2.6.3.9.3.6,0,1.2-.3,1.5-.8.5-.8.2-1.9-.6-2.4h0Z"/>
    <path class="cls-3" d="M63.4,86.4c-.3-.2-.7-.3-1.1-.3s-1,.3-1.4.7c-.6.8-.4,1.9.4,2.4.3.2.6.3,1,.3.6,0,1.1-.3,1.4-.7.3-.4.4-.8.3-1.3,0-.5-.3-.9-.7-1.1h0Z"/>
    <path class="cls-3" d="M60.7,90c-.3-.2-.7-.3-1.1-.3s-1,.3-1.4.7c-.6.8-.4,1.9.4,2.4.3.2.6.3,1,.3.6,0,1.1-.3,1.4-.7.6-.8.4-1.8-.4-2.4h0Z"/>
    <path class="cls-3" d="M44,84.8l-2.7,4.4c-.7,1.1-.9,2.4-.6,3.5.3,1.1,1,2.1,2.2,2.8l2.3,1.4c.8.5,1.7.8,2.6.8,1.5,0,2.9-.8,3.8-2.3l-1-2.6h0l1.8,1.1,2.4-3.9h0l2-2.8c.8-1,1.1-2.3.9-3.4-.2-1.2-.9-2.2-1.9-3l-6-4.4-2,2.8,5.9,4.4c.9.6.5,1.4.3,1.7l-2,2.7h0l-.8,1.2h0l-7.3-4.5h0ZM49.6,92.2l-.9,1.5c-.3.5-.7.6-.9.6s-.4,0-.7-.2l-2.3-1.4c-.3-.2-.6-.5-.6-.8s0-.6,0-.8l.9-1.6h0l4.4,2.7h0Z"/>
    <path class="cls-3" d="M83.5,64c-.4,0-.8,0-1.1.4-.4.3-.6.7-.6,1.2s0,.9.4,1.3.8.6,1.3.6.8,0,1.1-.4c.7-.6.8-1.7.2-2.4-.3-.4-.8-.6-1.4-.6h0Z"/>
    <path class="cls-3" d="M77.8,43l-2.7,2,7.2,9.9c.2.3.3.6.3.9s-.2.6-.5.8l-1.3.9h0l-1.1.9h0l-5.5-6.6-2.6,2.2,5.5,6.6h0l-3.5,3h0l-1,1h0l-2.8-2.8c-.9-.9-2.1-1.4-3.3-1.4s-2.3.5-3.2,1.4l-3.7,3.7,2.4,2.4,3.7-3.7c.2-.2.5-.4.8-.4s.6,0,.9.4l2.8,2.8h0l-6.4,6.5h0l-.9,1.1h0l-6.5-5.5-2.2,2.6,8.9,7.5c1.1.9,2.1,2.1.7,4.7l3.9.2c.9-3.3.5-5.1-1.6-6.9l-.6-.5h0l.9-1.1h0l9.4-9.4h0l7.1-5.9h0l1.2-.9c1.1-.8,1.8-1.9,2-3.2,0-1.1-.2-2.3-.9-3.3l-7.3-10h0Z"/>
    <polygon class="cls-3" points="93.4 53 84.2 38.7 81.4 40.6 91.6 56.3 93.4 53"/>
    <path class="cls-3" d="M104.5,27.7c-.2,0-.5,0-.7.1-.9.4-1.3,1.4-.9,2.3.3.6.9,1,1.6,1s.5,0,.7-.2c.8-.4,1.2-1.4.8-2.3-.3-.6-.9-1-1.6-1h0Z"/>
    <path class="cls-3" d="M100.2,29.7c-.2,0-.5,0-.7.1-.9.4-1.3,1.4-.9,2.3.3.6.9,1,1.6,1s.5,0,.7-.2c.8-.4,1.2-1.4.8-2.3-.3-.6-.9-1-1.6-1h0Z"/>
    <path class="cls-3" d="M102,47.3c.7,0,1.5-.2,2.2-.5l9.9-4.5c1.2-.6,2.1-1.4,2.5-2.5s.3-2.3-.2-3.5l-3.1-6.8-3.1,1.4,3,6.6c.2.4.2.8,0,1.1,0,.3-.3.5-.6.6l-10,4.5c-.2,0-.4,0-.6,0-.4,0-.8-.3-1.1-.9l-2.1-4.6-2.2,3.4,1.2,2.7c.8,1.8,2.2,2.8,4,2.8h0Z"/>
    <path class="cls-3" d="M132.6,39.5c.5,0,.9,0,1.4-.2,2.2-.5,4.5-2.3,3.7-5.8l-1.3-5.7c-.5-2.3-2.2-3.6-4.4-3.6s-.9,0-1.4.2c-1.3.3-2.4,1-3.1,1.8-.8,1-1,2.3-.6,3.8l.9,4-2.7.6h0c0,0-.3.2-.3.2h-.5c-.5,0-.9-.3-1-.9l-3.8-11.7-3.2,1,3.8,11.9c.6,1.9,2.3,3.2,4.1,3.2s.9,0,1.3-.2l.6-.2h0c0,0,2.6-.7,2.6-.7h0c.8,1.3,2.2,2.1,3.8,2.1v.2ZM131.3,27.8h.5c.6,0,1.1.3,1.2,1l1.4,5.8c0,.4,0,.7-.1.9-.2.3-.6.5-1,.7h-.5c-.6,0-1.1-.3-1.2-1l-1.4-5.8c-.2-.8.2-1.4,1.2-1.6h0Z"/>
    <path class="cls-3" d="M159,15.7h0c-.9,0-1.7.9-1.7,1.8s.8,1.7,1.7,1.7h0c1,0,1.7-.8,1.7-1.8s-.8-1.7-1.8-1.7h.1Z"/>
    <path class="cls-3" d="M173.9,33.5l1.4.2h.7c2.8,0,4.2-2,4.5-4.1l1.4-12.3-3.4-.4-1.4,12.2c0,.7-.5,1.1-1.2,1.1s-.1,0-.2,0l-1.6-.2h-1.4l.8-13.5-3.4-.2-.8,13.5h0l-2.7-.2h0c0-.1-1.5-.1-1.5-.1h0v-4c0-2.7-1.9-4.5-4.5-4.5s0,0-.1,0h-5.2v3.5h5.2c.7-.1,1.1.4,1.2,1.1v4h0l-9.1.2-1.4.2h0l-.2-2c-.4-2.8-2.1-5.8-6-5.8s-.7,0-1,0l-2.1.3.4,3.4,1.8-.2h.6c1.6,0,2.6.9,2.8,2.6l.3,2.2h0l-6.9.9.4,3.4,11.6-1.5,13.6-.3h0c0,0,7.5.6,7.5.6h-.1Z"/>
    <path class="cls-3" d="M198.3,20.1h-.4c-.8,0-1.5.6-1.7,1.3-.2.9.4,1.9,1.3,2.1h.4c.8,0,1.5-.6,1.7-1.4.1-.4,0-.9-.2-1.3s-.6-.7-1.1-.8h0Z"/>
    <path class="cls-3" d="M193.7,19.2h-.4c-.8,0-1.5.6-1.7,1.3-.1.5,0,.9.2,1.3s.6.7,1.1.8h.4c.8,0,1.5-.6,1.7-1.4.2-.9-.4-1.9-1.3-2.1h0Z"/>
    <path class="cls-3" d="M198.9,41.5h-.5c-.8,0-1.5.5-1.7,1.2-.1.4,0,.9.1,1.3.2.4.6.7,1,.9h.5c.7,0,1.4-.5,1.6-1.2.3-.9-.2-1.9-1.1-2.2h0Z"/>
    <path class="cls-3" d="M203.3,42.7h-.5c-.8,0-1.5.5-1.7,1.2-.3.9.2,1.9,1.1,2.2h.5c.7,0,1.4-.5,1.6-1.2.1-.4.1-.9,0-1.3-.2-.4-.6-.7-1-.9h0Z"/>
    <path class="cls-3" d="M219.6,46.2h0c0,0,1.4.8,1.4.8.8.4,1.5.6,2.3.6,1.6,0,3.1-.9,3.9-2.5l5.8-10.9-3-1.6-5.7,10.8c-.2.4-.6.7-1,.7s-.4,0-.6-.2l-1.4-.7h0c0,0-1.3-.7-1.3-.7l1.6-3.8c.5-1.3.6-2.5,0-3.7-.5-1.1-1.4-2-2.7-2.5-.8-.3-1.6-.5-2.3-.5-1.8,0-3.2,1-4,2.9l-1.6,3.8-2.5-1.1h0l-1.3-.4h0l2.7-8.2-3.3-1.1-2.7,8.2h0l-4.4-1.4h0l-1.4-.4h0l2-8.4-5-1.2c-.4,0-.8-.1-1.2-.1-2.1,0-3.8,1.4-4.3,3.6l-.6,2.7c-.3,1.3-.1,2.5.5,3.5s1.7,1.8,3,2.1l2.2-1.8h0l-.5,2.2,4.5,1h0l9,3h0l2.5,1.1h0c-.2,2,1,3.7,3.1,4.6.8.3,1.5.5,2.3.5,1.3,0,2.4-.5,3.2-1.5h0l1.3.5h-.5ZM195.7,28.6l-1.2,5-1.8-.4c-.7-.2-1-.7-.8-1.4l.6-2.7c.1-.6.6-1,1.1-1s.2,0,.3,0l1.8.4h0ZM216,42.9c-.2.5-.6.8-1.1.8s-.5,0-.8-.2c-.5-.2-.8-.5-.9-.8-.1-.3,0-.6,0-.9l2.3-5.5c.2-.5.6-.8,1.1-.8s.5,0,.8.2c.9.4,1.2,1,.9,1.8l-2.3,5.5h0Z"/>
    <path class="cls-3" d="M249.2,65c1.3,0,2.5-.6,3.4-1.6l8.2-9.3-2.5-2.2-8.1,9.2c-.3.3-.6.5-.9.5s-.6,0-.8-.3l-1.2-1h0v-.2c.1,0-3.6-2.7-3.6-2.7h0c1.2-.4,2.7-.6,3.8-.6s.2,0,.3,0c.9-1.2,1.3-2.5,1.1-4-.2-1.7-1.2-3.3-2.7-4.4-1.2-.8-2.6-1.3-4-1.3s-3.5.9-4.4,2.4c.3.9.6,2.7.7,4.1h0l-4.7-3.4v.2c-.1,0-.4,0-.4,0-.7-.4-.8-1-.4-1.6l6.4-10.5-2.9-1.8-6.4,10.7c-.6,1-.8,2.2-.6,3.3.2,1.2.9,2.1,2,2.8l.5.3v-.2h.1l5.4,3.9c.5.4,1,.6,2,.7h0c.3.9.5,1.2,1.2,1.7l4.3,3.1h-.1c0,0,1.2,1.2,1.2,1.2.9.8,2,1.2,3.1,1.2h0ZM242.3,54h0c0-.9-.2-2-.6-3.1h0c1.1-.4,2-.3,2.7.3.7.5,1.1,1.4,1.1,2.5h0c-1,0-2,0-3.1.4h0Z"/>
    <polygon class="cls-3" points="266.4 59.4 264 57 250.8 70.4 254.5 71.5 266.4 59.4"/>
    <path class="cls-3" d="M287.7,87.4c-.3,0-.6,0-.9.2-.4.2-.7.6-.8,1.1-.1.5,0,.9.2,1.3.3.5.9.8,1.5.8s.6,0,.9-.3c.8-.5,1.1-1.5.6-2.4-.3-.5-.9-.9-1.5-.9v.2Z"/>
    <path class="cls-3" d="M276.6,97c.8,0,1.7-.3,2.5-.7l6.4-3.8-1.8-2.9-6.3,3.8c-.3.2-.5.2-.7.2-.5,0-.8-.4-1-.6l-1.7-2.9h0l-.9-1.2h0l3.3-2.4c2.3-1.6,2.6-4.3.9-6.7-1-1.4-2.4-2.2-3.8-2.2s-1.9.3-2.8,1l-3.3,2.4h0l-1.6-2.2h-.1l-.2-.2c-.5-.6-.4-1.2.1-1.7l9.3-8-2.2-2.6-9.5,8.1c-.9.8-1.5,1.8-1.6,2.9-.2,1.2.2,2.3,1,3.2l.4.4h0l1.6,2.2h0c-1.2,1.6-1.1,3.7.3,5.6,1,1.4,2.4,2.2,3.8,2.2s.9,0,1.4-.2h0l.8,1.1h0l1.8,3c.9,1.5,2.3,2.3,3.8,2.3h.1ZM269.7,87.1c-.2.2-.5.3-.7.3-.4,0-.8-.3-1.2-.7-.6-.8-.5-1.5.1-2l4.8-3.5c.7-.5,1.4-.3,1.9.5.3.4.4.7.4,1s-.2.7-.5.9l-4.8,3.5h0Z"/>
    <path class="cls-3" d="M288.2,103.9c-.5,0-1,0-1.5.3-1.8.8-2.6,2.9-1.8,4.8.6,1.3,1.9,2.2,3.4,2.2s1,0,1.4-.3c1.8-.8,2.7-3,1.9-4.8-.6-1.3-1.9-2.2-3.3-2.2h-.1Z"/>
  </g>
  <g>
    <polygon class="cls-3" points="22.1 119.8 21.2 123.3 31.6 125.9 31.5 125.9 19.5 130.1 18.7 133.4 35.6 137.7 36.5 134.1 26 131.5 26.1 131.5 38.2 127.3 39 124 22.1 119.8"/>
    <path class="cls-3" d="M17.9,137.5l-.5,4,3.1,1.3h0l-.6,5.2h0l-3.3.6-.5,4,17.9-3.7.5-3.9-16.6-7.6h0ZM23.1,147.6h0l.4-3.6,6,2.5-6.5,1.1h.1Z"/>
    <polygon class="cls-3" points="20.4 165.9 20.5 165.9 33.4 162.3 33.3 156.5 15.9 157 16 160.5 28.7 160.2 28.7 160.2 16.1 164 16.2 168.1 29 171.2 29 171.2 16.3 171.6 16.4 175.1 33.8 174.7 33.6 169.2 20.4 165.9"/>
    <polygon class="cls-3" points="22.9 189 23 189 35.2 183.4 34.1 177.6 17 180.9 17.7 184.4 30.2 182 30.2 182.1 18.3 187.8 19.1 191.9 32.3 192.8 32.3 192.9 19.8 195.3 20.5 198.8 37.5 195.5 36.5 190.1 22.9 189"/>
    <path class="cls-3" d="M21.7,202.9l1.3,3.8,3.4-.2h0l1.7,5h0l-2.7,2,1.3,3.8,14.6-11.1-1.3-3.7-18.3.4ZM36,206l-5.2,3.7h0l-1.2-3.4h0l6.5-.4h0Z"/>
    <rect class="cls-3" x="30.4" y="221.3" width="17.4" height="3.8" transform="translate(-95.5 40.9) rotate(-26.5)"/>
    <polygon class="cls-3" points="45.6 238.5 45.7 238.4 51 226.9 49.2 224 34.4 233.2 36.3 236.3 45.4 230.6 45.4 230.7 40 242.2 41.9 245.2 56.6 235.9 54.7 232.9 45.6 238.5"/>
    <polygon class="cls-3" points="55.6 239.9 58.2 243.1 58.2 243.1 47.2 252.1 49.6 255 60.6 246.1 60.7 246.1 63.1 249.2 66 247.6 58.1 237.8 55.6 239.9"/>
    <polygon class="cls-3" points="55.3 261.7 62.8 269 65.5 267.1 60.2 262.1 60.3 262 63.1 259.1 63.1 259.1 67.1 263 69.7 261.1 65.3 256.8 65.3 256.8 67.9 254.1 67.9 254.2 72.7 258.8 75.3 256.9 67.4 249.2 55.3 261.7"/>
    <path class="cls-3" d="M73.1,277.7l3.3,2.6,1.2-7.1h0c.4,0,.8.1,1.1.1,1.6,0,3.1-.8,4.4-2.4,1.4-1.7,3-5.1-1.5-8.7l-4.5-3.6-10.9,13.6,3,2.4,3.6-4.5h0l1.7,1.3h0l-1.4,6.2h0ZM74.8,267.7l3.4-4.2h0l1.7,1.4c.5.4.8.9.9,1.5,0,.7-.2,1.4-.7,2.1-.6.7-1.3,1.2-2.1,1.2s-1-.2-1.5-.6l-1.7-1.4h0Z"/>
    <polygon class="cls-3" points="92.5 282.5 92.1 269.8 89.1 268 80 282.9 83.1 284.7 88.7 275.6 88.7 275.7 89.1 288.4 92.1 290.2 101.1 275.3 98 273.4 92.5 282.6 92.5 282.5"/>
    <path class="cls-3" d="M106,296.7l3.7,1.6,1.8-18.2-3.6-1.6-12.2,13.6,3.7,1.6,2.2-2.6h0l4.8,2.1h0l-.4,3.4h0ZM103.6,288.7h0l4.2-5h0c0,.1-.9,6.5-.9,6.5h0s-3.3-1.5-3.3-1.5Z"/>
    <polygon class="cls-3" points="122.8 287.6 122.8 287.6 126.5 288.8 128 286 116.1 282.1 115.1 285.1 119.1 286.4 119.1 286.4 114.7 299.9 118.4 301.1 122.8 287.6"/>
    <rect class="cls-3" x="121.5" y="293.5" width="17.4" height="3.8" transform="translate(-187.2 354.2) rotate(-76.7)"/>
    <path class="cls-3" d="M144.9,288.9h-1.4c-4.4,0-7.2,2.8-7.8,7.9-.7,5.7,1.8,9.3,6.9,10h1.4c4.4,0,7.2-2.8,7.8-7.9.7-5.7-1.8-9.3-6.9-10ZM148,298.3c-.2,1.9-.7,3.2-1.4,4s-1.6,1.2-2.8,1.2-.5,0-.8,0c-1.4-.2-2.4-.8-2.9-1.7-.6-1-.8-2.5-.5-4.6.5-3.6,1.8-5.2,4.2-5.2s.5,0,.8,0c2.9.4,4,2.3,3.4,6.3h0Z"/>
    <polygon class="cls-3" points="166.1 290.2 166.2 301 166.2 300.9 159.1 290.3 155.7 290.3 155.8 307.7 159.4 307.7 159.4 297 159.4 297 166.4 307.6 169.9 307.6 169.8 290.2 166.1 290.2"/>
    <path class="cls-3" d="M177.2,289.4l-3.3,18,4-.5.5-3.4h0l5.2-.7h0l1.4,3.1,4-.5-8-16.5-3.9.5h.1ZM182.4,299.8l-3.5.5h0l.9-6.5,2.6,6h0Z"/>
    <polygon class="cls-3" points="195.8 300.4 195.8 300.3 192.3 286.6 188.6 287.5 192.9 304.4 202.3 302 202.1 298.8 195.8 300.4"/>
    <polygon class="cls-3" points="216.6 278 218.6 291.5 218.5 291.4 210.3 280.8 205 283.1 212 299.1 215.2 297.7 210.1 286 210.2 286 218.4 296.3 222.1 294.6 220.2 281.6 220.2 281.6 225.3 293.2 228.6 291.8 221.6 275.8 216.6 278"/>
    <path class="cls-3" d="M228,271.9l4.4,17.8,3.4-2.1-.9-3.3h0l4.5-2.8h0l2.5,2.2,3.4-2.1-14.1-11.7-3.3,2.1h.1ZM232.3,275l4.8,4.3-3.1,1.9h0l-1.8-6.3h.1Z"/>
    <path class="cls-3" d="M251.9,268.2h0c.9-1.9.5-4-1-5.9-1.2-1.5-2.7-2.3-4.3-2.3s-3,.6-4.5,1.9l-4.5,3.7,11,13.5,3-2.4-3.6-4.4h0l1.6-1.3,5.8,2.7,3.3-2.7-6.7-2.7h0ZM247.7,268.5l-1.7,1.4h0l-3.4-4.2h0l1.7-1.4c.5-.4,1-.6,1.5-.6.8,0,1.5.4,2.1,1.2.5.6.8,1.3.7,1.9,0,.6-.3,1.2-.9,1.7h0Z"/>
    <rect class="cls-3" x="254.8" y="252.4" width="3.8" height="17.4" transform="translate(-109.3 251) rotate(-43.9)"/>
    <polygon class="cls-3" points="269.5 249.9 269.4 249.9 256.8 248.2 254.5 250.8 267.7 262.2 270.1 259.4 262 252.4 262.1 252.4 274.7 254.1 276.9 251.5 263.7 240.1 261.4 242.9 269.5 249.9"/>
    <polygon class="cls-3" points="280 247.3 285.8 238.5 283.5 236.3 279.5 242.3 279.4 242.3 276.1 240 276.1 240 279.2 235.4 276.8 233.2 273.4 238.3 273.4 238.2 270.3 236.2 270.3 236.1 274 230.6 271.7 228.4 265.5 237.6 280 247.3"/>
    <path class="cls-3" d="M293,225.9c.9-1.8,1.1-3.4.7-4.8-.4-1.4-1.4-2.5-3.1-3.3-.7-.3-1.4-.5-2-.5-2.1,0-3.8,1.5-5.2,2.7-1,.8-1.8,1.6-2.5,1.6s-.3,0-.4,0c-.4-.2-.6-.5-.7-.9-.1-.5,0-1.2.4-2,.7-1.4,1.7-2.3,2.6-3.1l-2.7-2c-1,.8-2.2,2.3-2.8,3.6-.8,1.7-1.2,3.3-.9,4.6.2,1.4,1.1,2.5,2.6,3.2.7.3,1.4.5,2.1.5,1.9,0,3.4-1.3,4.7-2.5,1.1-1,2-1.8,2.9-1.8s.5,0,.7.2c.5.2.8.6.9,1s.2,1.1-.3,2.2c-.9,1.9-2.4,3.3-2.9,3.7l2.8,2c1.1-1,2.2-2.5,3.1-4.3h0Z"/>
    <polygon class="cls-3" points="287.2 201.7 284.4 200.1 280.6 210.5 297 216.4 300.6 206.5 297.8 204.9 295.3 211.7 295.3 211.7 291.4 210.3 291.5 210.3 293.3 205 290.5 203.5 288.4 209.2 284.9 208 284.9 207.9 287.2 201.7"/>
    <path class="cls-3" d="M298.1,191h0c-.5-2.1-2-3.5-4.4-4.1-.6-.1-1.2-.2-1.7-.2-2,0-4.5.9-5.5,5.3l-1.3,5.6,16.9,4,.9-3.7-5.6-1.3h0l.5-2.1h0l6.2-1.4,1-4.1-7,1.9h0ZM294.8,193.8l-.5,2.2h0l-5.3-1.3h0l.5-2.2c.3-1.1,1.2-1.8,2.4-1.8s.6,0,.9.1c1.6.4,2.4,1.5,2.1,3h-.1Z"/>
    <polygon class="cls-3" points="290 169.3 289.6 173.2 302.1 178.3 301.9 178.3 288.7 180.4 288.3 184.3 306.2 180.8 306.7 176.8 290 169.3"/>
    <rect class="cls-3" x="296.4" y="156.6" width="3.8" height="17.4" transform="translate(125.8 459.5) rotate(-88.6)"/>
    <path class="cls-3" d="M289.3,151.8c.3,5,3.7,8.1,8.9,8.1h.8c5.4-.3,8.5-3.9,8.1-9.5,0-1.1-.4-3.3-.8-4.3l-3.6-.4c.4,1.1,1,3.3,1.1,4.5,0,.9,0,2.3-.7,3.5-.8,1.4-2.2,2.1-4.2,2.2h-.8c-3.5,0-5.4-1.6-5.6-4.6-.1-1.8.4-3.5.7-4.4l-3.4-.4c-.5,1.7-.7,3.5-.6,5.3h.1Z"/>
    <polygon class="cls-3" points="300.9 131 302.2 138.1 302.2 138.2 298.2 138.9 298.2 138.8 297.2 133.3 294 133.4 295 139.4 295 139.4 291.4 140.1 291.4 140.1 290.2 133.5 287 133.5 288.9 144.4 306 141.4 304.2 131 300.9 131"/>
    <path class="cls-3" d="M302.1,121.9c-.9-3.1-2.7-4.8-5.2-4.8s-1.3,0-1.9.3c-3.2.9-3.6,4-3.9,6.5-.2,1.6-.3,2.8-1.2,3h-.4c-.8,0-1.4-.7-1.7-2-.4-1.5-.3-2.9-.1-4.1l-3.3.3c-.2,1.1-.2,2.9.3,4.6.9,3.2,2.6,4.9,4.9,4.9s1,0,1.5-.2c3.2-.9,3.5-3.7,3.8-6.1.2-1.7.4-3.3,1.6-3.6,1.2-.3,2.1.4,2.6,2,.6,2,.4,4,.3,4.7l3.4-.4c.2-1.5,0-3.4-.6-5.3v.2Z"/>
  </g>
  <path class="cls-3" d="M162,324C72.7,324,0,251.4,0,162S72.7,0,162,0s162,72.7,162,162-72.7,162-162,162ZM162,1.5C73.5,1.5,1.5,73.5,1.5,162s72,160.5,160.5,160.5,160.5-72,160.5-160.5S250.5,1.5,162,1.5Z"/>
</svg>