<?xml version="1.0" encoding="UTF-8"?>
<svg id="Layer_1" data-name="Layer 1" xmlns="http://www.w3.org/2000/svg" version="1.1" viewBox="0 0 336.9 158.9">
  <defs>
    <style>
      .cls-1 {
        fill: #fff;
        stroke-width: 0px;
      }
    </style>
  </defs>
  <polygon class="cls-1" points="71.6 .7 71.5 25.3 70.7 24.3 50 .7 39.7 .7 39.7 43.3 51.1 43.3 51.1 17.5 73.5 43.3 83 43.3 83 .7 71.6 .7"/>
  <polygon class="cls-1" points="96.7 .7 96.7 43.3 128.5 43.3 128.5 34.7 108.2 34.7 108.1 25.7 127.2 25.7 127.2 17.1 108.1 17.1 108.2 9.4 128.1 9.4 128.1 .7 96.7 .7"/>
  <g>
    <path class="cls-1" d="M174.4,30.5c0,3.4-1.2,6.3-3.4,8.5-2.9,3-7.6,4.6-13.2,4.6s-11.1-1.9-15.3-4.1h-.3v-10.3l.8.5c6,3.9,9.5,5.3,14,5.3s5.6-1.8,5.6-3.4c0-2.4-3.4-3.6-7.3-5-5.9-2.1-14-5-14-14.3s6.6-12.4,16.4-12.4,9,1,14.4,3.3h.3c0,.1,0,9.3,0,9.3l-.7-.3c-6.1-2.7-9.6-3.7-13-3.7s-5.6,1.1-5.6,2.9,3.3,3.3,7.1,4.7c3,1.1,6.5,2.4,9.3,4.6,2.8,2.2,4.8,5.2,4.8,9.7"/>
    <polygon class="cls-1" points="224.8 .7 211.6 15.9 211.2 15.5 198.4 .7 188.6 .7 188.6 43.3 200 43.3 200 18.2 210.6 30.4 212.6 30.4 223.1 18.2 223.1 43.3 234.6 43.3 234.5 .7 224.8 .7"/>
    <path class="cls-1" d="M266.9,26.1l5.2-13.6,6,14.3h-11.4l.3-.7ZM265.5.7l-17.2,42.6h12.1l3.1-8.3h18l3.4,8.3h12.3L278.3.7h-12.8Z"/>
    <path class="cls-1" d="M162.9,61.9v22.3c0,.7-.6,1.3-1.3,1.3h-8.8c-.4,0-.7,0-.9-.3-.3-.3-.4-.6-.4-.9v-22.3c0-.7.6-1.3,1.3-1.3h8.8c.7,0,1.3.6,1.3,1.3"/>
    <path class="cls-1" d="M221.3,84.1c0,.7-.6,1.3-1.3,1.3h-8.8c-.7,0-1.3-.6-1.3-1.3v-22.3c0-.7.6-1.3,1.3-1.3h8.8c.7,0,1.3.6,1.3,1.3v22.3Z"/>
    <path class="cls-1" d="M192.1,84.2c0,.4-.1.7-.4.9-.3.3-.6.4-.9.4h-8.8c-.7,0-1.3-.6-1.3-1.4v-22.3c0-.7.6-1.3,1.3-1.3h8.8c.7,0,1.3.6,1.3,1.3v22.3Z"/>
    <path class="cls-1" d="M332.7,143.1l-4.3.2c-11,.5-271.3,12.2-313.6,14.9l-3.5.2c-3.2.2-6.9.5-9.1.5s-2.2-1.2-2.3-2.7c0-.7,0-3,3.3-3.6.7-.1,1.5-.2,2.4-.3h.3c43.2-2.9,190.8-12.4,273.6-12.4s40.6.8,49,2.5l4.2.8Z"/>
    <path class="cls-1" d="M336.9,6.6c0,3.2-2.6,5.9-5.9,5.9s-5.9-2.6-5.9-5.9,2.6-5.9,5.9-5.9,5.9,2.6,5.9,5.9"/>
    <path class="cls-1" d="M336.6,39v40.3c0,3.2-2.6,5.8-5.8,5.8h-79.5c-3.1,0-5.7-2.6-5.7-5.7s2.7-6.1,5.8-6.1h69.1c2.7,0,4.6-1.8,4.6-4.4v-29.9c0-3.2,2.6-5.7,5.7-5.7s5.7,2.6,5.7,5.7"/>
    <path class="cls-1" d="M82.6,116.5h-31.6v-31.5h24.6c3.9,0,7,3.1,7,7v24.5ZM127.6,78.8c-.1-1.5-.9-2.9-2-3.9-1.1-1-2.5-1.6-4-1.6H39.5v38h-22.7c-2.7,0-4.9-2.2-4.9-4.9V6.4c0-3.2-2.6-5.7-5.7-5.7S.4,3.3.4,6.4v110.4c0,3.3,2.7,5.9,5.9,5.9h33.1v.4c.4,2.7,2.8,4.8,5.5,4.8h49v-42.9h28c1.6,0,3.1-.7,4.2-1.9,1.1-1.2,1.6-2.8,1.5-4.4"/>
  </g>
</svg>