<?xml version="1.0" encoding="UTF-8"?>
<svg id="Layer_1" data-name="Layer 1" xmlns="http://www.w3.org/2000/svg" version="1.1" viewBox="0 0 218.1 218.4">
  <defs>
    <style>
      .cls-1 {
        fill: #2e3690;
      }

      .cls-1, .cls-2 {
        fill-rule: evenodd;
        stroke-width: 0px;
      }

      .cls-2 {
        fill: #0d73bb;
      }
    </style>
  </defs>
  <path class="cls-2" d="M109.2,0c57.6,0,105,45.1,108.9,101.9l-2.1.8c-43.5,27.8-65.7,3.7-65.7,3.7l-31.8-22.9c-33.8-26.2-59.6-8.6-59.6-8.6l-21.4,10.2S13.3,99.2.1,106.4C1.7,47.5,50.1,0,109.2,0h0ZM176.1,75.3c6.7,0,12.1,5.5,12.1,12.3s-5.4,12.3-12.1,12.3-12.1-5.5-12.1-12.3,5.4-12.3,12.1-12.3h0Z"/>
  <path class="cls-1" d="M108.9,218.4C51.3,218.4,3.9,173.3,0,116.5l2.1-.8c43.5-27.8,65.7-3.7,65.7-3.7l31.8,22.9c33.8,26.2,59.6,8.6,59.6,8.6l21.4-10.2s24.2-14.1,37.4-21.3c-1.6,58.9-50,106.3-109.1,106.3h0Z"/>
</svg>